<svg xmlns="http://www.w3.org/2000/svg" xmlns:svg="http://www.w3.org/2000/svg" id="Layer_1" width="96" height="96" x="0" y="0" enable-background="new 0 0 96 96" version="1.1" viewBox="0 0 96 96" xml:space="preserve"><metadata id="metadata3064"/><rect id="rect3" width="96" height="96" fill="#FFF" stroke="#000" display="none"/><path style="fill:#000" id="path2983" d="m 37.659033,31.877863 -10.694975,-1.333735 0.09113,10.777433 -9.75938,-4.573387 -3.243742,10.278108 -7.8684673,-7.365363 -6.26109193,8.772689 -5.20733487,-9.436366 -8.6655629,6.40854 -2.036472,-10.583673 -10.221787,3.417077 1.333735,-10.694975 -10.777433,0.09113 4.573387,-9.759379 -10.278108,-3.243742 7.365363,-7.8684676 -8.772689,-6.26109188 9.436366,-5.20733492 -6.40854,-8.6655626 10.583673,-2.036472 -3.417077,-10.221787 10.694976,1.333735 -0.09113,-10.777433 9.759379,4.573386 3.2437423,-10.278107 7.8684674,7.365363 6.2610919,-8.77269 5.2073354,9.436367 8.665562,-6.40854 2.036472,10.583673 10.221787,-3.417077 -1.333734,10.694975 10.777432,-0.09113 -4.573386,9.75938 10.278107,3.2437421 -7.365363,7.86846739 8.77269,6.26109191 -9.436367,5.2073346 6.40854,8.665563 -10.583673,2.036472 z" transform="matrix(1.0521461,0,0,1.0579917,45.498641,44.045322)"/></svg>