<svg xmlns="http://www.w3.org/2000/svg" xmlns:svg="http://www.w3.org/2000/svg" id="Layer_1" width="96" height="96" x="0" y="0" enable-background="new 0 0 96 96" version="1.1" viewBox="0 0 96 96" xml:space="preserve"><metadata id="metadata3064"/><rect id="rect3" width="96" height="96" fill="#FFF" stroke="#000" display="none"/><path style="fill:#000;stroke:#000;stroke-width:1px;stroke-linecap:butt;stroke-linejoin:miter;stroke-opacity:1" id="path2983" d="m 39.013454,37.47982 c 2.31581,1.090455 -0.327373,3.659657 -1.812408,3.849028 -4.024353,0.513182 -6.340615,-4.044733 -5.885647,-7.473844 0.813831,-6.133875 7.540507,-9.237984 13.13528,-7.922267 8.210555,1.930869 12.197995,11.075309 9.958886,18.796716 C 51.425185,55.020875 39.786701,59.912756 29.951413,56.724958 17.574706,52.713441 11.770001,38.548729 15.919289,26.60537 20.944632,12.140363 37.652102,5.4184882 51.700313,10.536627 68.255643,16.568176 75.897278,35.828022 69.805676,51.979087 62.772679,70.62613 40.954364,79.189214 22.70178,72.121069 1.9620332,64.089794 -7.5236637,39.708902 0.523178,19.355737 9.5505183,-3.477438 36.496888,-13.886589 58.949946,-4.8594838 83.877096,5.162314 95.210329,34.676288 85.201786,59.22872" transform="matrix(0.99939906,0,0,1.1132291,4.7345112,11.033981)"/></svg>